:SAMPLES-PER-SECOND 24
:FULLY-SPECIFIED
:DEGREES
706
root  -10.4233 35.05 -32.7296 -6.70876 -66.0493 1.58023
RightUpLeg  -32.4077 -3.34788 -18.257
RightLeg  36.0509 11.634 8.70362
RightFoot  4.92568 -2.16414 15.321
RightToes  -1.46215e-006 3.27826e-006 1.63871e-007
Spine  7.76547 -7.309 -8.72424
Spine1  12.1721 -11.3957 9.69371
HEad  -64.4994 62.832 -70.8043
LeftShoulder1  0.687486 -2.77622 -2.83575
LeftArm  137.145 -79.3735 -154.144
LeftForeArm  127.397 -80.9671 -100.689
LeftHand  -0.540831 -1.69683 9.03521
RightShoulder  1.73517 3.27951 19.1235
RightArm  -24.7553 30.3955 11.2386
RightForeArm  8.48898 76.0212 59.4878
RightHand  -0.0552551 -3.43885 -2.15672
LeftUpLeg  7.09369 1.37524 10.2538
LeftLeg  43.6584 1.66788 2.1288
LeftFoot  -32.0937 -2.20631 -13.0678
LeftToes  1.24762e-006 1.46925e-008 1.29056e-009
707
root  -8.90641 35.7226 -31.9466 -5.07513 -64.7703 0.606766
RightUpLeg  -27.4337 0.534758 -20.9947
RightLeg  23.4368 9.08786 4.43764
RightFoot  4.99646 -1.89999 13.4593
RightToes  -1.46215e-006 3.27826e-006 1.63871e-007
Spine  7.15362 -8.38273 -11.2182
Spine1  13.7051 -13.5363 12.3984
HEad  -66.802 62.5449 -72.7708
LeftShoulder1  0.64876 -2.64787 -2.39028
LeftArm  132.153 -78.9411 -150.44
LeftForeArm  103.876 -80.8801 -78.1509
LeftHand  -0.61618 -1 11.3425
RightShoulder  2.07382 3.7063 22.5749
RightArm  -29.2379 13.646 3.3541
RightForeArm  38.2096 77.9229 89.0882
RightHand  -0.0787603 -4.15198 -5.71709
LeftUpLeg  5.85045 1.76618 7.9513
LeftLeg  39.7609 2.89516 2.9587
LeftFoot  -32.1061 -1.82223 -10.9751
LeftToes  1.24762e-006 1.46925e-008 1.29056e-009
708
root  -7.29581 36.4529 -31.0761 -2.26102 -63.7365 -0.957581
RightUpLeg  -22.2233 -2.87578 -19.302
RightLeg  10.6156 11.5501 -0.867625
RightFoot  0.872229 -0.890022 8.3601
RightToes  -1.46215e-006 3.27826e-006 1.63871e-007
Spine  7.63202 -9.16189 -12.5124
Spine1  12.8906 -15.1651 15.4371
HEad  -65.8272 63.0554 -71.8677
LeftShoulder1  0.702037 -2.86983 -2.91995
LeftArm  129.504 -77.6547 -148.46
LeftForeArm  82.8846 -79.615 -60.7557
LeftHand  -0.666808 -0.769799 12.6867
RightShoulder  1.93739 3.20455 22.6994
RightArm  -32.0166 -1.40114 -2.19058
RightForeArm  38.5637 77.9046 90.2102
RightHand  -0.081281 -4.42951 -7.64276
LeftUpLeg  3.50895 3.13316 6.23742
LeftLeg  36.582 2.93099 2.70945
LeftFoot  -30.5947 -1.22714 -8.30938
LeftToes  1.24762e-006 1.46925e-008 1.29056e-009
709
root  -5.71766 36.9517 -30.3435 1.2972 -64.1994 -2.94046
RightUpLeg  -22.3114 -3.89851 -18.4673
RightLeg  10.9101 9.3404 -0.634293
RightFoot  -1.5889 -0.575599 6.64878
RightToes  -1.46215e-006 3.27826e-006 1.63871e-007
Spine  7.99704 -9.51737 -12.2345
Spine1  11.6242 -15.6302 16.5273
HEad  -66.55 63.4444 -71.769
LeftShoulder1  0.685506 -2.6871 -2.98094
LeftArm  132.181 -76.2062 -152.121
LeftForeArm  68.7539 -78.1561 -51.3059
LeftHand  -0.671285 -1.23802 11.9056
RightShoulder  1.5665 2.3255 20.5623
RightArm  -33.538 -10.5808 -6.48127
RightForeArm  6.50219 75.3069 55.1936
RightHand  -0.169221 -3.1812 -8.23913
LeftUpLeg  -0.104844 6.51449 5.49543
LeftLeg  36.1153 1.03976 1.18663
LeftFoot  -28.9273 -0.740532 -5.90914
LeftToes  1.24762e-006 1.46925e-008 1.29056e-009
710
root  -4.28444 37.2117 -29.8078 2.99506 -66.2617 -3.39455
RightUpLeg  -25.7472 -1.85286 -18.5269
RightLeg  24.3028 6.62924 3.42575
RightFoot  -1.72656 -0.750327 8.761
RightToes  -1.46215e-006 3.27826e-006 1.63871e-007
Spine  8.13113 -9.72277 -12.5257
Spine1  11.3635 -15.5898 15.5589
HEad  -69.0307 63.3962 -72.5042
LeftShoulder1  0.619232 -2.39004 -2.34579
LeftArm  134.1 -74.794 -155.511
LeftForeArm  57.627 -76.7557 -45.6382
LeftHand  -0.636569 -1.36158 11.0961
RightShoulder  1.23533 1.58957 17.7503
RightArm  -33.3844 -11.5152 -9.05139
RightForeArm  -16.9317 61.8652 23.7576
RightHand  -0.334144 -1.18661 -9.19266
LeftUpLeg  -3.21752 9.36407 3.58752
LeftLeg  36.3207 1.04686 1.21231
LeftFoot  -27.5569 -0.404602 -4.00241
LeftToes  1.24762e-006 1.46925e-008 1.29056e-009
711
root  -3.02736 37.4395 -29.3427 2.87448 -68.6781 -2.77446
RightUpLeg  -27.1318 -2.37008 -15.7999
RightLeg  39.3934 8.541 7.23143
RightFoot  -2.43442 -0.697757 8.73593
RightToes  -1.46215e-006 3.27826e-006 1.63871e-007
Spine  8.7587 -9.59938 -13.6889
Spine1  11.157 -15.4424 14.5818
HEad  -69.4249 63.9716 -72.0807
LeftShoulder1  0.665694 -2.83901 -2.32908
LeftArm  132.541 -72.4891 -155.371
LeftForeArm  45.2285 -75.1862 -41.5353
LeftHand  -0.613167 -0.695966 11.8208
RightShoulder  0.892416 0.678005 14.5619
RightArm  -28.6598 -5.77341 -10.3799
RightForeArm  -19.9429 38.2774 9.59455
RightHand  -0.648857 1.64926 -10.8993
LeftUpLeg  -4.82165 9.2126 0.641439
LeftLeg  35.3511 3.44089 2.9998
LeftFoot  -26.0724 -0.288156 -3.44163
LeftToes  1.24762e-006 1.46925e-008 1.29056e-009
712
root  -1.92899 37.7686 -28.8087 3.75443 -71.2014 -3.12561
RightUpLeg  -25.2705 -2.54763 -11.9423
RightLeg  48.6858 7.76792 9.0504
RightFoot  -4.99617 -0.437781 7.27341
RightToes  -1.46215e-006 3.27826e-006 1.63871e-007
Spine  8.28849 -9.23805 -13.46
Spine1  11.5137 -14.8806 13.4348
HEad  -67.3214 64.9008 -70.2915
LeftShoulder1  0.741186 -3.49318 -2.44341
LeftArm  129.525 -69.5441 -154.407
LeftForeArm  32.1324 -74.0655 -40.526
LeftHand  -0.577274 0.0433405 12.6038
RightShoulder  0.554662 -0.425438 10.8901
RightArm  -36.0516 1.59999 -10.8329
RightForeArm  -5.12198 9.76638 8.81974
RightHand  -1.21078 3.19631 -16.5115
LeftUpLeg  -5.69602 8.91487 -1.52344
LeftLeg  33.2367 4.69581 3.6848
LeftFoot  -24.4097 -0.262163 -3.56744
LeftToes  1.24762e-006 1.46925e-008 1.29056e-009
